<svg version="1" xmlns="http://www.w3.org/2000/svg" width="346.667" height="346.667" viewBox="0 0 260.000000 260.000000"><path d="M77 130.5V240h16.9c12.6 0 17-.3 17.3-1.2.2-.7.3-21.9.2-47.2l-.1-45.8 10.2.4c14.7.6 19.5 3.9 22.1 14.8.4 1.4.8 17.4 1 35.5.3 21.4.9 34.8 1.7 38l1.2 5 17.7.3 17.7.2-1.6-4.2c-1.3-3.5-1.6-9.9-1.9-34.8-.4-42-1.1-48.6-6.4-59.1-2.2-4.3-8.3-10-12.8-11.8-4-1.7-4-2.3-.3-3.9 3.9-1.7 10.5-8.2 12.7-12.3 4.9-9.6 5.7-13.7 6-33.4.4-21.4-.6-27.8-5.7-38.2-5-10.4-14.3-16.9-28.2-19.7-5.9-1.3-14.2-1.6-37.7-1.6H77v109.5zm58.5-76.8c7 3.8 9.2 11.8 8.9 32.2-.3 23.4-3.8 27.8-22.8 28.7l-10.2.6-.1-31.6V52.1l11.1.3c6.1.2 12 .8 13.1 1.3z"/></svg>